<svg id="visual" viewBox="0 0 900 600" width="900" height="600" xmlns="http://www.w3.org/2000/svg" xmlns:xlink="http://www.w3.org/1999/xlink" version="1.1"><rect x="0" y="0" width="900" height="600" fill="#816f9a"></rect><path d="M0 388L21.5 399.2C43 410.3 86 432.7 128.8 440.3C171.7 448 214.3 441 257.2 450.8C300 460.7 343 487.3 385.8 488.7C428.7 490 471.3 466 514.2 465.3C557 464.7 600 487.3 642.8 483.2C685.7 479 728.3 448 771.2 429.2C814 410.3 857 403.7 878.5 400.3L900 397L900 601L878.5 601C857 601 814 601 771.2 601C728.3 601 685.7 601 642.8 601C600 601 557 601 514.2 601C471.3 601 428.7 601 385.8 601C343 601 300 601 257.2 601C214.3 601 171.7 601 128.8 601C86 601 43 601 21.5 601L0 601Z" fill="#6600FF" stroke-linecap="round" stroke-linejoin="miter"></path></svg>